<svg id="visual" viewBox="0 0 900 600" width="900" height="600" xmlns="http://www.w3.org/2000/svg" xmlns:xlink="http://www.w3.org/1999/xlink" version="1.1"><path d="M0 390L21.5 389C43 388 86 386 128.8 390.7C171.7 395.3 214.3 406.7 257.2 402.2C300 397.7 343 377.3 385.8 378.2C428.7 379 471.3 401 514.2 405.8C557 410.7 600 398.3 642.8 388.2C685.7 378 728.3 370 771.2 373.7C814 377.3 857 392.7 878.5 400.3L900 408L900 601L878.5 601C857 601 814 601 771.2 601C728.3 601 685.7 601 642.8 601C600 601 557 601 514.2 601C471.3 601 428.7 601 385.8 601C343 601 300 601 257.2 601C214.3 601 171.7 601 128.8 601C86 601 43 601 21.5 601L0 601Z" fill="#ab925b"></path><path d="M0 460L21.5 457.7C43 455.3 86 450.7 128.8 446.3C171.7 442 214.3 438 257.2 436.2C300 434.3 343 434.7 385.8 437.7C428.7 440.7 471.3 446.3 514.2 442.3C557 438.3 600 424.7 642.8 428.2C685.7 431.7 728.3 452.3 771.2 451.2C814 450 857 427 878.5 415.5L900 404L900 601L878.5 601C857 601 814 601 771.2 601C728.3 601 685.7 601 642.8 601C600 601 557 601 514.2 601C471.3 601 428.7 601 385.8 601C343 601 300 601 257.2 601C214.3 601 171.7 601 128.8 601C86 601 43 601 21.5 601L0 601Z" fill="#8d7044"></path><path d="M0 494L21.5 489C43 484 86 474 128.8 465.2C171.7 456.3 214.3 448.7 257.2 451C300 453.3 343 465.7 385.8 472.7C428.7 479.7 471.3 481.3 514.2 479.2C557 477 600 471 642.8 474.3C685.7 477.7 728.3 490.3 771.2 494.2C814 498 857 493 878.5 490.5L900 488L900 601L878.5 601C857 601 814 601 771.2 601C728.3 601 685.7 601 642.8 601C600 601 557 601 514.2 601C471.3 601 428.7 601 385.8 601C343 601 300 601 257.2 601C214.3 601 171.7 601 128.8 601C86 601 43 601 21.5 601L0 601Z" fill="#6f512e"></path><path d="M0 521L21.5 517.3C43 513.7 86 506.3 128.8 501.8C171.7 497.3 214.3 495.7 257.2 494.3C300 493 343 492 385.8 494.2C428.7 496.3 471.3 501.7 514.2 502.2C557 502.7 600 498.3 642.8 494.7C685.7 491 728.3 488 771.2 491.3C814 494.7 857 504.3 878.5 509.2L900 514L900 601L878.5 601C857 601 814 601 771.2 601C728.3 601 685.7 601 642.8 601C600 601 557 601 514.2 601C471.3 601 428.7 601 385.8 601C343 601 300 601 257.2 601C214.3 601 171.7 601 128.8 601C86 601 43 601 21.5 601L0 601Z" fill="#51341a"></path><path d="M0 549L21.5 546C43 543 86 537 128.8 538.3C171.7 539.7 214.3 548.3 257.2 551.8C300 555.3 343 553.7 385.8 556.2C428.7 558.7 471.3 565.3 514.2 562.5C557 559.7 600 547.3 642.8 539.3C685.7 531.3 728.3 527.7 771.2 533.7C814 539.7 857 555.3 878.5 563.2L900 571L900 601L878.5 601C857 601 814 601 771.2 601C728.3 601 685.7 601 642.8 601C600 601 557 601 514.2 601C471.3 601 428.7 601 385.8 601C343 601 300 601 257.2 601C214.3 601 171.7 601 128.8 601C86 601 43 601 21.5 601L0 601Z" fill="#341903"></path></svg>