<svg id="visual" viewBox="0 0 900 600" width="900" height="600" xmlns="http://www.w3.org/2000/svg" xmlns:xlink="http://www.w3.org/1999/xlink" version="1.1"><path d="M0 324L37.5 316.7C75 309.3 150 294.7 225 283.3C300 272 375 264 450 268.3C525 272.7 600 289.3 675 298.2C750 307 825 308 862.5 308.5L900 309L900 601L862.5 601C825 601 750 601 675 601C600 601 525 601 450 601C375 601 300 601 225 601C150 601 75 601 37.5 601L0 601Z" fill="#e8a461"></path><path d="M0 339L37.5 345.3C75 351.7 150 364.3 225 365C300 365.7 375 354.3 450 353.2C525 352 600 361 675 358.2C750 355.3 825 340.7 862.5 333.3L900 326L900 601L862.5 601C825 601 750 601 675 601C600 601 525 601 450 601C375 601 300 601 225 601C150 601 75 601 37.5 601L0 601Z" fill="#b9834e"></path><path d="M0 462L37.5 454.5C75 447 150 432 225 431.5C300 431 375 445 450 443.7C525 442.3 600 425.7 675 423.3C750 421 825 433 862.5 439L900 445L900 601L862.5 601C825 601 750 601 675 601C600 601 525 601 450 601C375 601 300 601 225 601C150 601 75 601 37.5 601L0 601Z" fill="#8c643c"></path><path d="M0 506L37.5 508.5C75 511 150 516 225 511.7C300 507.3 375 493.7 450 489.8C525 486 600 492 675 495.8C750 499.7 825 501.3 862.5 502.2L900 503L900 601L862.5 601C825 601 750 601 675 601C600 601 525 601 450 601C375 601 300 601 225 601C150 601 75 601 37.5 601L0 601Z" fill="#62462a"></path></svg>